<mxfile host="Electron" agent="Mozilla/5.0 (Windows NT 10.0; Win64; x64) AppleWebKit/537.36 (KHTML, like Gecko) draw.io/24.7.5 Chrome/126.0.6478.183 Electron/31.3.0 Safari/537.36" version="24.7.5">
  <diagram name="Seite-1" id="cTNYEhEPU5jRSqe9hr1z">
    <mxGraphModel dx="2220" dy="956" grid="1" gridSize="10" guides="1" tooltips="1" connect="1" arrows="1" fold="1" page="1" pageScale="1" pageWidth="827" pageHeight="1169" math="0" shadow="0">
      <root>
        <mxCell id="0" />
        <mxCell id="1" parent="0" />
        <mxCell id="X1e9lBfZdGJECuIq955r-20" value="yes" style="edgeStyle=orthogonalEdgeStyle;rounded=0;orthogonalLoop=1;jettySize=auto;html=1;exitX=0.5;exitY=1;exitDx=0;exitDy=0;fillColor=#d5e8d4;strokeColor=#82b366;" edge="1" parent="1" source="X1e9lBfZdGJECuIq955r-17" target="X1e9lBfZdGJECuIq955r-19">
          <mxGeometry relative="1" as="geometry" />
        </mxCell>
        <mxCell id="X1e9lBfZdGJECuIq955r-49" value="no" style="edgeStyle=orthogonalEdgeStyle;rounded=0;orthogonalLoop=1;jettySize=auto;html=1;entryX=0;entryY=0.5;entryDx=0;entryDy=0;fillColor=#f8cecc;strokeColor=#b85450;" edge="1" parent="1" source="X1e9lBfZdGJECuIq955r-17" target="X1e9lBfZdGJECuIq955r-36">
          <mxGeometry relative="1" as="geometry" />
        </mxCell>
        <mxCell id="X1e9lBfZdGJECuIq955r-17" value="trial_csv exists" style="rhombus;whiteSpace=wrap;html=1;rounded=0;fillColor=#fff2cc;strokeColor=#d6b656;" vertex="1" parent="1">
          <mxGeometry x="280" y="160" width="80" height="80" as="geometry" />
        </mxCell>
        <mxCell id="X1e9lBfZdGJECuIq955r-59" style="edgeStyle=orthogonalEdgeStyle;rounded=0;orthogonalLoop=1;jettySize=auto;html=1;entryX=0.5;entryY=0;entryDx=0;entryDy=0;exitX=0.5;exitY=1;exitDx=0;exitDy=0;" edge="1" parent="1" source="X1e9lBfZdGJECuIq955r-19" target="X1e9lBfZdGJECuIq955r-58">
          <mxGeometry relative="1" as="geometry" />
        </mxCell>
        <mxCell id="X1e9lBfZdGJECuIq955r-19" value="iDrinkLog.trials_from_csv" style="whiteSpace=wrap;html=1;rounded=0;" vertex="1" parent="1">
          <mxGeometry x="240" y="320" width="160" height="60" as="geometry" />
        </mxCell>
        <mxCell id="X1e9lBfZdGJECuIq955r-39" value="yes" style="edgeStyle=orthogonalEdgeStyle;rounded=0;orthogonalLoop=1;jettySize=auto;html=1;fillColor=#d5e8d4;strokeColor=#82b366;" edge="1" parent="1" source="X1e9lBfZdGJECuIq955r-30" target="X1e9lBfZdGJECuIq955r-38">
          <mxGeometry relative="1" as="geometry" />
        </mxCell>
        <mxCell id="X1e9lBfZdGJECuIq955r-30" value="json exists" style="rhombus;whiteSpace=wrap;html=1;rounded=0;fillColor=#fff2cc;strokeColor=#d6b656;" vertex="1" parent="1">
          <mxGeometry x="920" y="160" width="80" height="80" as="geometry" />
        </mxCell>
        <mxCell id="X1e9lBfZdGJECuIq955r-43" value="yes" style="edgeStyle=orthogonalEdgeStyle;rounded=0;orthogonalLoop=1;jettySize=auto;html=1;fillColor=#d5e8d4;strokeColor=#82b366;" edge="1" parent="1" source="X1e9lBfZdGJECuIq955r-32" target="X1e9lBfZdGJECuIq955r-42">
          <mxGeometry relative="1" as="geometry" />
        </mxCell>
        <mxCell id="X1e9lBfZdGJECuIq955r-52" value="no" style="edgeStyle=orthogonalEdgeStyle;rounded=0;orthogonalLoop=1;jettySize=auto;html=1;entryX=0;entryY=0.5;entryDx=0;entryDy=0;fillColor=#f8cecc;strokeColor=#b85450;" edge="1" parent="1" source="X1e9lBfZdGJECuIq955r-32" target="X1e9lBfZdGJECuIq955r-30">
          <mxGeometry relative="1" as="geometry" />
        </mxCell>
        <mxCell id="X1e9lBfZdGJECuIq955r-32" value="trc exists" style="rhombus;whiteSpace=wrap;html=1;rounded=0;fillColor=#fff2cc;strokeColor=#d6b656;" vertex="1" parent="1">
          <mxGeometry x="760" y="160" width="80" height="80" as="geometry" />
        </mxCell>
        <mxCell id="X1e9lBfZdGJECuIq955r-45" value="yes" style="edgeStyle=orthogonalEdgeStyle;rounded=0;orthogonalLoop=1;jettySize=auto;html=1;fillColor=#d5e8d4;strokeColor=#82b366;" edge="1" parent="1" source="X1e9lBfZdGJECuIq955r-34" target="X1e9lBfZdGJECuIq955r-44">
          <mxGeometry relative="1" as="geometry" />
        </mxCell>
        <mxCell id="X1e9lBfZdGJECuIq955r-51" value="no" style="edgeStyle=orthogonalEdgeStyle;rounded=0;orthogonalLoop=1;jettySize=auto;html=1;entryX=0;entryY=0.5;entryDx=0;entryDy=0;fillColor=#f8cecc;strokeColor=#b85450;" edge="1" parent="1" source="X1e9lBfZdGJECuIq955r-34" target="X1e9lBfZdGJECuIq955r-32">
          <mxGeometry relative="1" as="geometry" />
        </mxCell>
        <mxCell id="X1e9lBfZdGJECuIq955r-34" value="mov exists" style="rhombus;whiteSpace=wrap;html=1;rounded=0;fillColor=#fff2cc;strokeColor=#d6b656;" vertex="1" parent="1">
          <mxGeometry x="600" y="160" width="80" height="80" as="geometry" />
        </mxCell>
        <mxCell id="X1e9lBfZdGJECuIq955r-47" value="yes" style="edgeStyle=orthogonalEdgeStyle;rounded=0;orthogonalLoop=1;jettySize=auto;html=1;fillColor=#d5e8d4;strokeColor=#82b366;" edge="1" parent="1" source="X1e9lBfZdGJECuIq955r-36" target="X1e9lBfZdGJECuIq955r-46">
          <mxGeometry relative="1" as="geometry" />
        </mxCell>
        <mxCell id="X1e9lBfZdGJECuIq955r-50" value="no" style="edgeStyle=orthogonalEdgeStyle;rounded=0;orthogonalLoop=1;jettySize=auto;html=1;entryX=0;entryY=0.5;entryDx=0;entryDy=0;fillColor=#f8cecc;strokeColor=#b85450;" edge="1" parent="1" source="X1e9lBfZdGJECuIq955r-36" target="X1e9lBfZdGJECuIq955r-34">
          <mxGeometry relative="1" as="geometry" />
        </mxCell>
        <mxCell id="X1e9lBfZdGJECuIq955r-36" value="murph exists" style="rhombus;whiteSpace=wrap;html=1;rounded=0;fillColor=#fff2cc;strokeColor=#d6b656;" vertex="1" parent="1">
          <mxGeometry x="440" y="160" width="80" height="80" as="geometry" />
        </mxCell>
        <mxCell id="X1e9lBfZdGJECuIq955r-63" style="edgeStyle=orthogonalEdgeStyle;rounded=0;orthogonalLoop=1;jettySize=auto;html=1;exitX=0.5;exitY=1;exitDx=0;exitDy=0;entryX=0.5;entryY=0;entryDx=0;entryDy=0;" edge="1" parent="1" source="X1e9lBfZdGJECuIq955r-38" target="X1e9lBfZdGJECuIq955r-58">
          <mxGeometry relative="1" as="geometry">
            <mxPoint x="640" y="460" as="targetPoint" />
          </mxGeometry>
        </mxCell>
        <mxCell id="X1e9lBfZdGJECuIq955r-38" value="trials_from_csv" style="whiteSpace=wrap;html=1;rounded=0;" vertex="1" parent="1">
          <mxGeometry x="900" y="320" width="120" height="60" as="geometry" />
        </mxCell>
        <mxCell id="X1e9lBfZdGJECuIq955r-62" style="edgeStyle=orthogonalEdgeStyle;rounded=0;orthogonalLoop=1;jettySize=auto;html=1;entryX=0.5;entryY=0;entryDx=0;entryDy=0;exitX=0.5;exitY=1;exitDx=0;exitDy=0;" edge="1" parent="1" source="X1e9lBfZdGJECuIq955r-42" target="X1e9lBfZdGJECuIq955r-58">
          <mxGeometry relative="1" as="geometry" />
        </mxCell>
        <mxCell id="X1e9lBfZdGJECuIq955r-42" value="trials_from_p2s" style="whiteSpace=wrap;html=1;rounded=0;" vertex="1" parent="1">
          <mxGeometry x="740" y="320" width="120" height="60" as="geometry" />
        </mxCell>
        <mxCell id="X1e9lBfZdGJECuIq955r-61" style="edgeStyle=orthogonalEdgeStyle;rounded=0;orthogonalLoop=1;jettySize=auto;html=1;entryX=0.5;entryY=0;entryDx=0;entryDy=0;" edge="1" parent="1" source="X1e9lBfZdGJECuIq955r-44" target="X1e9lBfZdGJECuIq955r-58">
          <mxGeometry relative="1" as="geometry" />
        </mxCell>
        <mxCell id="X1e9lBfZdGJECuIq955r-44" value="trials_from_opensim" style="whiteSpace=wrap;html=1;rounded=0;" vertex="1" parent="1">
          <mxGeometry x="580" y="320" width="120" height="60" as="geometry" />
        </mxCell>
        <mxCell id="X1e9lBfZdGJECuIq955r-60" style="edgeStyle=orthogonalEdgeStyle;rounded=0;orthogonalLoop=1;jettySize=auto;html=1;entryX=0.5;entryY=0;entryDx=0;entryDy=0;exitX=0.5;exitY=1;exitDx=0;exitDy=0;" edge="1" parent="1" source="X1e9lBfZdGJECuIq955r-46" target="X1e9lBfZdGJECuIq955r-58">
          <mxGeometry relative="1" as="geometry" />
        </mxCell>
        <mxCell id="X1e9lBfZdGJECuIq955r-46" value="trials_from_murphy" style="whiteSpace=wrap;html=1;rounded=0;" vertex="1" parent="1">
          <mxGeometry x="420" y="320" width="120" height="60" as="geometry" />
        </mxCell>
        <mxCell id="X1e9lBfZdGJECuIq955r-53" value="run_mode" style="swimlane;fontStyle=0;childLayout=stackLayout;horizontal=1;startSize=30;horizontalStack=0;resizeParent=1;resizeParentMax=0;resizeLast=0;collapsible=1;marginBottom=0;whiteSpace=wrap;html=1;" vertex="1" parent="1">
          <mxGeometry x="80" y="525" width="140" height="210" as="geometry" />
        </mxCell>
        <mxCell id="X1e9lBfZdGJECuIq955r-54" value="create_trilal_objects" style="text;strokeColor=none;fillColor=none;align=left;verticalAlign=middle;spacingLeft=4;spacingRight=4;overflow=hidden;points=[[0,0.5],[1,0.5]];portConstraint=eastwest;rotatable=0;whiteSpace=wrap;html=1;" vertex="1" parent="X1e9lBfZdGJECuIq955r-53">
          <mxGeometry y="30" width="140" height="30" as="geometry" />
        </mxCell>
        <mxCell id="X1e9lBfZdGJECuIq955r-55" value="delta_calibration_val" style="text;strokeColor=none;fillColor=none;align=left;verticalAlign=middle;spacingLeft=4;spacingRight=4;overflow=hidden;points=[[0,0.5],[1,0.5]];portConstraint=eastwest;rotatable=0;whiteSpace=wrap;html=1;" vertex="1" parent="X1e9lBfZdGJECuIq955r-53">
          <mxGeometry y="60" width="140" height="30" as="geometry" />
        </mxCell>
        <mxCell id="X1e9lBfZdGJECuIq955r-92" value="pose_estimation" style="text;strokeColor=none;fillColor=none;align=left;verticalAlign=middle;spacingLeft=4;spacingRight=4;overflow=hidden;points=[[0,0.5],[1,0.5]];portConstraint=eastwest;rotatable=0;whiteSpace=wrap;html=1;" vertex="1" parent="X1e9lBfZdGJECuIq955r-53">
          <mxGeometry y="90" width="140" height="30" as="geometry" />
        </mxCell>
        <mxCell id="X1e9lBfZdGJECuIq955r-93" value="pose2sim" style="text;strokeColor=none;fillColor=none;align=left;verticalAlign=middle;spacingLeft=4;spacingRight=4;overflow=hidden;points=[[0,0.5],[1,0.5]];portConstraint=eastwest;rotatable=0;whiteSpace=wrap;html=1;" vertex="1" parent="X1e9lBfZdGJECuIq955r-53">
          <mxGeometry y="120" width="140" height="30" as="geometry" />
        </mxCell>
        <mxCell id="X1e9lBfZdGJECuIq955r-91" value="delta_calibration_val" style="text;strokeColor=none;fillColor=none;align=left;verticalAlign=middle;spacingLeft=4;spacingRight=4;overflow=hidden;points=[[0,0.5],[1,0.5]];portConstraint=eastwest;rotatable=0;whiteSpace=wrap;html=1;" vertex="1" parent="X1e9lBfZdGJECuIq955r-53">
          <mxGeometry y="150" width="140" height="30" as="geometry" />
        </mxCell>
        <mxCell id="X1e9lBfZdGJECuIq955r-94" value="delta_calibration_val" style="text;strokeColor=none;fillColor=none;align=left;verticalAlign=middle;spacingLeft=4;spacingRight=4;overflow=hidden;points=[[0,0.5],[1,0.5]];portConstraint=eastwest;rotatable=0;whiteSpace=wrap;html=1;" vertex="1" parent="X1e9lBfZdGJECuIq955r-53">
          <mxGeometry y="180" width="140" height="30" as="geometry" />
        </mxCell>
        <mxCell id="X1e9lBfZdGJECuIq955r-57" style="edgeStyle=orthogonalEdgeStyle;rounded=0;orthogonalLoop=1;jettySize=auto;html=1;entryX=0.5;entryY=0;entryDx=0;entryDy=0;exitX=1;exitY=0.5;exitDx=0;exitDy=0;" edge="1" parent="1" source="X1e9lBfZdGJECuIq955r-54" target="X1e9lBfZdGJECuIq955r-17">
          <mxGeometry relative="1" as="geometry" />
        </mxCell>
        <mxCell id="X1e9lBfZdGJECuIq955r-65" value="" style="edgeStyle=orthogonalEdgeStyle;rounded=0;orthogonalLoop=1;jettySize=auto;html=1;" edge="1" parent="1" source="X1e9lBfZdGJECuIq955r-58" target="X1e9lBfZdGJECuIq955r-64">
          <mxGeometry relative="1" as="geometry" />
        </mxCell>
        <mxCell id="X1e9lBfZdGJECuIq955r-58" value="trial_list" style="rounded=1;whiteSpace=wrap;html=1;arcSize=50;fillColor=#dae8fc;strokeColor=#6c8ebf;" vertex="1" parent="1">
          <mxGeometry x="580" y="470" width="120" height="60" as="geometry" />
        </mxCell>
        <mxCell id="X1e9lBfZdGJECuIq955r-67" value="no" style="edgeStyle=orthogonalEdgeStyle;rounded=0;orthogonalLoop=1;jettySize=auto;html=1;fillColor=#f8cecc;strokeColor=#b85450;exitX=0.5;exitY=1;exitDx=0;exitDy=0;entryX=0;entryY=0.5;entryDx=0;entryDy=0;" edge="1" parent="1" source="X1e9lBfZdGJECuIq955r-64" target="X1e9lBfZdGJECuIq955r-55">
          <mxGeometry x="-0.8824" relative="1" as="geometry">
            <Array as="points">
              <mxPoint x="640" y="760" />
              <mxPoint x="60" y="760" />
              <mxPoint x="60" y="600" />
            </Array>
            <mxPoint as="offset" />
          </mxGeometry>
        </mxCell>
        <mxCell id="X1e9lBfZdGJECuIq955r-68" value="yes" style="edgeStyle=orthogonalEdgeStyle;rounded=0;orthogonalLoop=1;jettySize=auto;html=1;fillColor=#d5e8d4;strokeColor=#82b366;entryX=1;entryY=0.5;entryDx=0;entryDy=0;exitX=0;exitY=0.5;exitDx=0;exitDy=0;" edge="1" parent="1" source="X1e9lBfZdGJECuIq955r-64" target="X1e9lBfZdGJECuIq955r-70">
          <mxGeometry x="0.375" relative="1" as="geometry">
            <mxPoint x="429.9999999999998" y="640" as="targetPoint" />
            <Array as="points">
              <mxPoint x="580" y="640" />
              <mxPoint x="580" y="600" />
            </Array>
            <mxPoint as="offset" />
          </mxGeometry>
        </mxCell>
        <mxCell id="X1e9lBfZdGJECuIq955r-64" value="calib_done" style="rhombus;whiteSpace=wrap;html=1;fillColor=#fff2cc;strokeColor=#d6b656;rounded=1;arcSize=0;" vertex="1" parent="1">
          <mxGeometry x="600" y="600" width="80" height="80" as="geometry" />
        </mxCell>
        <mxCell id="X1e9lBfZdGJECuIq955r-70" value="toml calib_file" style="rounded=1;whiteSpace=wrap;html=1;arcSize=50;" vertex="1" parent="1">
          <mxGeometry x="360" y="570" width="120" height="60" as="geometry" />
        </mxCell>
        <mxCell id="X1e9lBfZdGJECuIq955r-85" style="edgeStyle=orthogonalEdgeStyle;rounded=0;orthogonalLoop=1;jettySize=auto;html=1;entryX=0.5;entryY=0;entryDx=0;entryDy=0;" edge="1" parent="1" source="X1e9lBfZdGJECuIq955r-71" target="X1e9lBfZdGJECuIq955r-53">
          <mxGeometry relative="1" as="geometry">
            <Array as="points">
              <mxPoint x="-120" y="310" />
              <mxPoint x="90" y="310" />
            </Array>
          </mxGeometry>
        </mxCell>
        <mxCell id="X1e9lBfZdGJECuIq955r-71" value="iDrinkHubValidation" style="swimlane;fontStyle=0;childLayout=stackLayout;horizontal=1;startSize=30;horizontalStack=0;resizeParent=1;resizeParentMax=0;resizeLast=0;collapsible=1;marginBottom=0;whiteSpace=wrap;html=1;" vertex="1" parent="1">
          <mxGeometry x="-240" y="40" width="240" height="210" as="geometry">
            <mxRectangle x="-240" y="40" width="150" height="30" as="alternateBounds" />
          </mxGeometry>
        </mxCell>
        <mxCell id="X1e9lBfZdGJECuIq955r-72" value="--mode" style="text;strokeColor=none;fillColor=none;align=left;verticalAlign=middle;spacingLeft=4;spacingRight=4;overflow=hidden;points=[[0,0.5],[1,0.5]];portConstraint=eastwest;rotatable=0;whiteSpace=wrap;html=1;" vertex="1" parent="X1e9lBfZdGJECuIq955r-71">
          <mxGeometry y="30" width="240" height="30" as="geometry" />
        </mxCell>
        <mxCell id="X1e9lBfZdGJECuIq955r-73" value="--poseback" style="text;strokeColor=none;fillColor=none;align=left;verticalAlign=middle;spacingLeft=4;spacingRight=4;overflow=hidden;points=[[0,0.5],[1,0.5]];portConstraint=eastwest;rotatable=0;whiteSpace=wrap;html=1;" vertex="1" parent="X1e9lBfZdGJECuIq955r-71">
          <mxGeometry y="60" width="240" height="30" as="geometry" />
        </mxCell>
        <mxCell id="X1e9lBfZdGJECuIq955r-74" value="--trial_id" style="text;strokeColor=none;fillColor=none;align=left;verticalAlign=middle;spacingLeft=4;spacingRight=4;overflow=hidden;points=[[0,0.5],[1,0.5]];portConstraint=eastwest;rotatable=0;whiteSpace=wrap;html=1;" vertex="1" parent="X1e9lBfZdGJECuIq955r-71">
          <mxGeometry y="90" width="240" height="30" as="geometry" />
        </mxCell>
        <mxCell id="X1e9lBfZdGJECuIq955r-80" value="--identifier" style="text;strokeColor=none;fillColor=none;align=left;verticalAlign=middle;spacingLeft=4;spacingRight=4;overflow=hidden;points=[[0,0.5],[1,0.5]];portConstraint=eastwest;rotatable=0;whiteSpace=wrap;html=1;" vertex="1" parent="X1e9lBfZdGJECuIq955r-71">
          <mxGeometry y="120" width="240" height="30" as="geometry" />
        </mxCell>
        <mxCell id="X1e9lBfZdGJECuIq955r-81" value="--verbose" style="text;strokeColor=none;fillColor=none;align=left;verticalAlign=middle;spacingLeft=4;spacingRight=4;overflow=hidden;points=[[0,0.5],[1,0.5]];portConstraint=eastwest;rotatable=0;whiteSpace=wrap;html=1;" vertex="1" parent="X1e9lBfZdGJECuIq955r-71">
          <mxGeometry y="150" width="240" height="30" as="geometry" />
        </mxCell>
        <mxCell id="X1e9lBfZdGJECuIq955r-82" value="--DEBUG" style="text;strokeColor=none;fillColor=none;align=left;verticalAlign=middle;spacingLeft=4;spacingRight=4;overflow=hidden;points=[[0,0.5],[1,0.5]];portConstraint=eastwest;rotatable=0;whiteSpace=wrap;html=1;" vertex="1" parent="X1e9lBfZdGJECuIq955r-71">
          <mxGeometry y="180" width="240" height="30" as="geometry" />
        </mxCell>
        <mxCell id="X1e9lBfZdGJECuIq955r-90" style="edgeStyle=orthogonalEdgeStyle;rounded=0;orthogonalLoop=1;jettySize=auto;html=1;entryX=0;entryY=0.5;entryDx=0;entryDy=0;" edge="1" parent="1" source="X1e9lBfZdGJECuIq955r-55" target="X1e9lBfZdGJECuIq955r-70">
          <mxGeometry relative="1" as="geometry" />
        </mxCell>
      </root>
    </mxGraphModel>
  </diagram>
</mxfile>
